<?xml version="1.0" encoding="UTF-8"?> <svg xmlns="http://www.w3.org/2000/svg" width="290" height="251" viewBox="0 0 290 251"> <g fill="#FF0657"> <g transform="translate(72 125)"> <path d="M164.3,0.3 L145,33.7 C128.6,62.1 128.6,97.1 145,125.5 L217.3,0.2 L164.3,0.2 L164.3,0.3 Z"></path> <path d="M26.8,79.6 L0.3,125.5 L145,125.5 C128.6,97.1 98.3,79.6 65.5,79.6 L26.8,79.6 Z"></path> <polygon points="48.2 42.6 97.1 42.6 72.6 .3"></polygon> <polygon points="121.5 .3 121.5 .3 72.6 .3 97.1 42.6"></polygon> </g> <polygon points="53 125.3 98.8 45.9 72.3 0 0 125.3"></polygon> <polygon points="190.4 45.9 190.4 45.9 217 0 72.3 0 98.8 45.9"></polygon> <polygon points="144.6 125.3 169.1 83 120.2 83 120.2 83"></polygon> <polygon points="120.2 83 95.8 125.3 144.6 125.3"></polygon> <g> <polygon points="53 125.3 0 125.3 72.3 250.5 98.8 204.6"></polygon> <polygon points="190.4 45.9 236.3 125.3 289.3 125.3 217 0"></polygon> <polygon points="193.5 125.3 169.1 83 144.6 125.3"></polygon> <polygon points="144.6 125.3 95.8 125.3 120.2 167.6"></polygon> </g> </g> </svg> 